<?xml version="1.0" encoding="utf-8"?>
<svg xmlns="http://www.w3.org/2000/svg"
	xmlns:xlink="http://www.w3.org/1999/xlink"
	width="9px" height="7px" viewBox="0 0 9 7">
<path fillRule="evenodd" d="M 0.79 4.21C 0.79 4.21 2.79 6.21 2.79 6.21 2.98 6.39 3.24 6.5 3.5 6.5 3.76 6.5 4.02 6.39 4.21 6.21 4.21 6.21 8.21 2.21 8.21 2.21 8.6 1.82 8.6 1.18 8.21 0.79 7.82 0.4 7.18 0.4 6.79 0.79 6.79 0.79 3.5 4.09 3.5 4.09 3.5 4.09 2.21 2.79 2.21 2.79 1.82 2.4 1.18 2.4 0.79 2.79 0.4 3.18 0.4 3.82 0.79 4.21 0.79 4.21 0.79 4.21 0.79 4.21Z" fill="rgb(61,155,231)"/></svg>