<?xml version="1.0" encoding="utf-8"?>
<svg xmlns="http://www.w3.org/2000/svg"
	xmlns:xlink="http://www.w3.org/1999/xlink"
	width="13px" height="13px" viewBox="0 0 13 13">
<path fillRule="evenodd" d="M 5.52 7.53C 5.52 7.53 1.95 7.53 1.95 7.53 1.95 7.53 0.97 8.89 0.97 8.89 0.97 8.89-0 8.89-0 8.89-0 8.89 0.65 6.5 0.65 6.5 0.65 6.5-0 4.11-0 4.11-0 4.11 0.97 4.11 0.97 4.11 0.97 4.11 1.95 5.47 1.95 5.47 1.95 5.47 5.52 5.47 5.52 5.47 5.52 5.47 3.9-0 3.9-0 3.9-0 5.2-0 5.2-0 5.2-0 8.45 5.47 8.45 5.47 8.45 5.47 12.02 5.47 12.02 5.47 12.56 5.47 13 5.93 13 6.5 13 7.07 12.56 7.53 12.02 7.53 12.02 7.53 8.45 7.53 8.45 7.53 8.45 7.53 5.2 13 5.2 13 5.2 13 3.9 13 3.9 13 3.9 13 5.52 7.53 5.52 7.53Z" fill="rgb(209,212,213)"/></svg>